<?xml version="1.0" encoding="UTF-8" standalone="no"?>
<!DOCTYPE svg PUBLIC "-//W3C//DTD SVG 1.1//EN" "http://www.w3.org/Graphics/SVG/1.1/DTD/svg11.dtd">
<svg width="100%" height="100%" viewBox="0 0 540 540" version="1.1" xmlns="http://www.w3.org/2000/svg" xmlns:xlink="http://www.w3.org/1999/xlink" xml:space="preserve" xmlns:serif="http://www.serif.com/" style="fill-rule:evenodd;clip-rule:evenodd;stroke-linejoin:round;stroke-miterlimit:2;">
    <g transform="matrix(0.5,0,0,0.5,0,0)">
        <g transform="matrix(3.21637,0,0,3.21637,-475.813,-1857.35)">
            <path d="M322.437,822.771L322.438,861.42C322.415,862.158 322.089,870.502 318.891,880.224C315.96,889.137 310.677,899.754 299.31,904.986C291.836,908.426 282.308,909.468 270.114,907.505C200.278,887.564 149.091,823.225 149.091,747.024C149.091,654.928 223.862,580.157 315.959,580.157C318.125,580.157 320.282,580.198 322.429,580.28L322.436,781.816L236.435,747.171L314.412,715.666L314.412,683.31L190.724,733.283C185.052,735.575 181.34,741.081 181.343,747.199C181.346,753.316 185.064,758.819 190.738,761.104L416.979,852.246C424.658,855.339 433.404,851.616 436.498,843.937C439.591,836.258 435.868,827.512 428.189,824.419L362.436,797.93L362.433,696.264L428.359,669.628C430.287,668.849 431.966,667.714 433.348,666.329C434.734,664.946 435.869,663.268 436.648,661.34C437.392,659.497 437.744,657.593 437.743,655.72C437.744,653.848 437.392,651.944 436.648,650.101C435.869,648.173 434.734,646.495 433.348,645.112C431.966,643.727 430.287,642.592 428.359,641.813L370.431,618.408L370.431,650.764L382.698,655.72L362.432,663.909L362.429,586.724C431.945,606.87 482.826,671.052 482.826,747.024C482.826,827.82 425.28,895.28 348.974,910.62C350.428,908.094 351.732,905.533 352.9,902.967C362.28,882.35 362.437,861.845 362.437,861.845C362.438,861.766 362.438,861.687 362.438,861.608L362.437,838.933L322.437,822.771Z" style="fill:rgb(27,27,27);"/>
        </g>
    </g>
</svg>
